PathFileType	4	(X/Y/Z)	C:/Users/opensim2020/Desktop/walking_exp_matlab/subject01_walking10_straight_02.trc																																																																																																																															
DataRate	CameraRate	NumFrames	NumMarkers	Units	OrigDataRate	OrigDataStartFrame	OrigNumFrames																																																																																																																											
100	100	4	43	mm	100	2248	262																																																																																																																											
Frame#	Time	LFHD			RFHD			LBHD			RBHD			C7			T10			CLAV			STRN			RBAK			LSHO			LUPA			LELB			LFRM			LWRA			LWRB			LFIN			RSHO			RUPA			RELB			RFRM			RWRA			RWRB			RFIN			LASI			RASI			LPSI			RPSI			LTHI			LKNE			LTIB			LANK			LHEE			LTOE			RTHI			RKNE			RTIB			RANK			RHEE			RTOE			*39			*40			*41			*42		
		X1	Y1	Z1	X2	Y2	Z2	X3	Y3	Z3	X4	Y4	Z4	X5	Y5	Z5	X6	Y6	Z6	X7	Y7	Z7	X8	Y8	Z8	X9	Y9	Z9	X10	Y10	Z10	X11	Y11	Z11	X12	Y12	Z12	X13	Y13	Z13	X14	Y14	Z14	X15	Y15	Z15	X16	Y16	Z16	X17	Y17	Z17	X18	Y18	Z18	X19	Y19	Z19	X20	Y20	Z20	X21	Y21	Z21	X22	Y22	Z22	X23	Y23	Z23	X24	Y24	Z24	X25	Y25	Z25	X26	Y26	Z26	X27	Y27	Z27	X28	Y28	Z28	X29	Y29	Z29	X30	Y30	Z30	X31	Y31	Z31	X32	Y32	Z32	X33	Y33	Z33	X34	Y34	Z34	X35	Y35	Z35	X36	Y36	Z36	X37	Y37	Z37	X38	Y38	Z38	X39	Y39	Z39	X40	Y40	Z40	X41	Y41	Z41	X42	Y42	Z42	X43	Y43	Z43
																																																																																																																																		
230	2.29	703.54596	1646.29529	984.75055	752.72314	1649.91602	1087.59521	589.58026	1622.95618	1033.23572	639.23486	1627.14624	1142.41113	538.09753	1420.17712	1067.58997	510.638	1122.77173	1071.64478	680.75226	1350.40686	1064.68884	727.65784	1198.31873	1062.8158	485.57883	1221.33997	1143.45764	615.32965	1377.76575	903.60681	580.466	1190.04333	824.92139	565.51587	1040.52124	832.18146	598.18054	931.23785	809.07813	672.55524	813.75635	828.39056	616.74396	810.08936	805.85022	662.95978	739.10229	796.7558	618.25525	1377.1853	1216.745	579.79321	1173.90088	1322.42346	593.66614	1049.03589	1327.4104	645.01019	938.52991	1355.02893	746.58948	840.54156	1329.54224	705.78485	832.4978	1370.59766	756.97076	763.75891	1366.19067	699.22839	919.39954	974.57867	678.59747	915.69019	1192.52905	507.59033	932.67004	1005.1922	494.91144	939.44751	1149.80298	728.98022	599.25507	915.96838	749.53259	470.25049	936.38251	746.80457	282.03284	928.63995	775.30328	65.86552	979.71869	735.34814	33.81813	1034.82642	921.98828	41.18422	977.87982	561.43384	592.21246	1231.92651	534.13586	432.64703	1205.06274	420.83972	295.81104	1202.60938	322.67737	113.24864	1147.4425	266.17319	96.43969	1094.31665	442.94061	33.14571	1141.44873	740.90942	1685.172	1067.66516	-1972.73975	1024.64734	3103.22485	-2012.95471	1022.00928	3138.70361	NaN	NaN	NaN
231	2.3	710.35229	1646.67249	982.39697	759.62457	1650.40662	1085.22974	596.49976	1623.20605	1030.98022	646.23669	1627.49634	1140.1355	545.02698	1420.25769	1065.6499	518.7514	1122.75696	1070.45435	688.1297	1350.64624	1062.73669	735.62695	1198.91382	1060.93896	493.44336	1221.15356	1141.53223	622.29156	1377.57178	901.59631	588.45624	1189.71167	823.33478	573.98755	1040.04944	830.66504	606.89026	930.95105	807.63562	681.24573	813.51886	827.03052	625.61029	809.72418	804.10345	671.50806	739.01624	795.44995	625.59668	1377.5592	1214.87073	586.67157	1174.30798	1320.50928	600.24329	1049.49939	1325.59534	650.74896	938.70587	1353.42419	751.5744	839.9165	1328.21777	710.49713	832.03339	1369.31555	761.29974	763.15698	1365.05334	707.96179	920.10809	973.19855	687.59235	915.60767	1191.04688	516.14276	933.30652	1004.24091	503.96982	939.40411	1148.8728	736.51727	600.04596	914.99225	757.74646	471.35992	935.7724	753.36462	282.3176	926.21936	776.8653	65.65054	979.46521	736.39587	34.49549	1034.37964	923.45007	39.09326	977.73608	570.6347	592.06775	1231.37573	543.09863	432.50043	1204.90662	426.66855	298.151	1202.49585	325.53958	116.5987	1148.26013	269.30991	101.32407	1094.94641	443.36984	33.10577	1141.67285	747.86389	1685.67786	1065.21948	-1972.90991	1024.08875	3102.57495	-2013.12024	1022.1153	3138.30811	NaN	NaN	NaN
232	2.31	717.33923	1646.94165	980.04004	766.58075	1651.03821	1082.81982	603.48303	1623.48633	1028.76392	653.26581	1628.02734	1137.85083	552.19757	1420.49072	1063.88013	526.88068	1122.8302	1069.24744	696.05493	1351.32605	1060.75281	743.65491	1199.63208	1059.1405	501.39703	1221.16272	1139.6969	629.39801	1377.65369	899.67627	596.56281	1189.49414	821.85083	582.177	1040.23193	828.87036	615.71448	930.96204	806.0694	690.04059	813.52911	825.69244	634.59064	809.74054	802.53082	680.70276	738.89972	794.03137	633.14056	1378.07971	1212.95483	593.48138	1174.86511	1318.26465	606.77649	1050.22095	1323.74792	656.45685	939.12238	1351.65198	756.37537	839.36499	1326.89246	715.21716	831.88837	1367.96741	765.49091	762.49188	1363.88062	716.49609	921.05902	971.66028	696.6521	915.68341	1189.37964	524.48169	934.0329	1003.39691	512.93616	939.55396	1148.11108	745.06195	601.12531	914.08282	766.14929	471.90372	935.26923	758.61707	282.16425	924.04816	778.64978	65.73032	979.33002	737.27429	34.95041	1033.82959	924.81824	37.40271	977.52472	580.62872	592.29767	1230.23975	552.81879	432.33997	1204.80383	433.17673	300.54501	1202.40649	328.48425	120.85245	1149.35913	272.21555	107.03689	1095.82373	444.28369	33.12282	1141.72986	754.72412	1686.13513	1062.78381	-1973.09607	1024.03748	3102.21045	NaN	NaN	NaN	NaN	NaN	NaN
233	2.32	724.29712	1647.44153	977.67407	773.61987	1651.74023	1080.38013	610.51123	1623.82336	1026.49121	660.35834	1628.62085	1135.50183	559.9516	1420.57434	1061.43774	534.88538	1123.07886	1068.12439	703.35065	1351.92859	1058.77917	751.51593	1200.40942	1057.21704	509.27808	1221.40637	1138.05933	636.53992	1377.90393	897.7525	604.39154	1189.54346	820.20569	590.7666	1040.15515	827.26776	624.5304	931.17218	804.52356	698.98126	813.79272	824.30475	643.4325	810.00952	801.23792	689.77026	739.37885	792.479	640.60034	1378.79114	1211.07825	600.32733	1175.59973	1316.2157	613.41748	1051.02271	1321.79248	661.99384	939.60309	1349.98889	761.08459	838.93903	1325.50281	719.90265	832.10809	1366.40479	769.31274	762.07587	1362.73792	724.83875	922.16431	969.93317	705.67108	915.92828	1187.59753	532.79974	934.91217	1002.70221	522.00983	939.83582	1147.36206	754.20789	602.31586	913.35913	774.06299	472.02957	934.7644	763.25824	281.96072	922.45166	779.49786	65.54648	979.08289	737.78088	35.32419	1033.55725	926.21167	35.97419	977.69434	591.26007	591.9483	1229.24329	563.46094	432.19232	1204.86353	440.49329	303.19971	1202.36719	332.48422	125.29218	1150.19946	276.03958	113.32727	1096.45422	444.19348	32.77116	1142.14795	761.69012	1686.86218	1060.31726	-1972.97217	1024.14209	3102.42798	-2013.06079	1022.09076	3138.44849	NaN	NaN	NaN
